Simulation
nRows=23
nColumns=15
endheader
time  TH_x TH_y TH_z SC_y  SC_z  SC_x  AC_y  AC_z  AC_x  GH_y  GH_z  GH_yy  EL_x  PS_y
2.6910411985018725  0.000000  0.000000  0.000000  -23.534040721258265  4.142313138512834  -3.73559675832394  59.14943899737855  8.501354648783458  7.087987924335926  -32.23526275382933  5.246252232223425  59.16925387155564  15.893656878850491  120.000000
2.7312059925093632  0.000000  0.000000  0.000000  -23.31297424846697  4.16713757919112  -3.592654067294143  59.645492900165934  8.712363092912584  7.373722440453352  -37.89610197177092  3.717782903571307  67.09333471223744  16.638996252490735  120.000000
2.771370786516854  0.000000  0.000000  0.000000  -23.25112232579305  4.2643880241443215  -3.384304489773344  60.05359995949718  8.924935327099782  7.621892079206678  -49.40797888000876  2.3446522313934466  80.65172802654706  17.297600666029883  120.000000
2.8115355805243447  0.000000  0.000000  0.000000  -23.3103833900753  4.414876538083764  -3.1369052928581227  60.37565408306715  9.120132621459339  7.826916941526475  -81.5100520017049  1.3165893211912711  114.58919882047219  17.84527422011531  120.000000
2.851700374531835  0.000000  0.000000  0.000000  -23.453682365430797  4.60129444920491  -2.8667565626662057  60.619065555177386  9.28804846102306  7.988168194743158  -141.2159965584036  1.3711297723270626  175.93307193475948  18.268669036991042  120.000000
2.8918651685393257  0.000000  0.000000  0.000000  -23.649687287206593  4.808901701282733  -2.582080036821463  60.793979018364894  9.426583575853838  8.108294187921548  -168.64922274905044  2.3097961074458966  -155.17833150531158  18.56415443619062  120.000000
2.9320299625468165  0.000000  0.000000  0.000000  -23.873691106574835  5.025989970326354  -2.286407836828074  60.91010016712655  9.537663046537395  8.191881765925176  -178.48336178845244  3.3907654012141024  -144.05743931140415  18.73745183373779  120.000000
2.972194756554307  0.000000  0.000000  0.000000  -24.106843028752326  5.243700981481195  -1.982325846249485  60.97700772330953  9.62436410775475  8.243178884780672  176.94014209798405  4.445607982790918  -138.35016541568666  18.801930664419846  120.000000
3.012359550561798  0.000000  0.000000  0.000000  -24.33527084273326  5.455565650022073  -1.6728408140186748  61.0037204103742  9.689210799365828  8.265706173386324  174.42233617276892  5.435776491935758  -134.8454182406929  18.77704680703686  120.000000
3.0525243445692882  0.000000  0.000000  0.000000  -24.54979212875821  5.6566643569709285  -1.3615546648449006  60.99846106803191  9.733907625259398  8.262282523963009  172.89683822944642  6.347952334000882  -132.46537334307672  18.68576932922119  120.000000
3.092689138576779  0.000000  0.000000  0.000000  -24.74477399748984  5.843408321454335  -1.0523073242727272  60.968247457365415  9.759332659496536  8.23540940028738  171.92291804353127  7.176308538217412  -130.7583080713606  18.55168167675577  120.000000
3.1328539325842697  0.000000  0.000000  0.000000  -24.91736338367284  6.013162882111867  -0.7490243836253958  60.918891077500284  9.765780300218553  8.187481493607713  171.28922667757854  7.917996146187949  -129.50251491933864  18.396281331935285  120.000000
3.1730187265917604  0.000000  0.000000  0.000000  -25.066574909969066  6.163879657557628  -0.455460831848985  60.85508829035507  9.753097782500276  8.120995499158493  170.88260467099948  8.5716610782498  -128.5750858094956  18.236609062617244  120.000000
3.2131835205992507  0.000000  0.000000  0.000000  -25.19274378552751  6.2941914335986  -0.1750155860071104  60.78040773552545  9.721073487185732  8.038520658834276  170.638965797385  9.136614650545964  -127.90287190256883  18.08393770809203  120.000000
3.2533483146067415  0.000000  0.000000  0.000000  -25.296985356395478  6.403838071069302  0.0894550091082109  60.69746580651821  9.669839051909655  7.942228489804886  170.52175652472346  9.612223593642574  -127.44096068028226  17.94363162888118  120.000000
3.293513108614232  0.000000  0.000000  0.000000  -25.38070867676932  6.493424697951089  0.3355690395620357  60.60822859486942  9.599880163989615  7.833873827907021  170.50858291247692  9.99798953036812  -127.1592827630164  17.81646905316064  120.000000
3.333677902621723  0.000000  0.000000  0.000000  -25.445241305954454  6.563687175627135  0.5611881969001838  60.514308755900565  9.51164766997976  7.715317122127382  170.5840232739048  10.293931821949329  -127.03544272213006  17.700520169744507  120.000000
3.3738426966292137  0.000000  0.000000  0.000000  -25.491667295883587  6.615299326973663  0.7643742615395394  60.41711628099036  9.405537329045547  7.588581722527014  170.7382603169978  10.500494819609628  -127.05338679382118  17.59293252197336  120.000000
3.414007490636704  0.000000  0.000000  0.000000  -25.520976662895475  6.649160169163526  0.9434854073723995  60.3179114902796  9.282183763719013  7.455463194579791  170.96657106145278  10.618198168171187  -127.2029404141084  17.491139473691263  120.000000
3.4541722846441947  0.000000  0.000000  0.000000  -25.5341263887881  6.666441706312462  1.097266587463877  60.21763686966263  9.142530415851175  7.317572872442803  171.26960671400465  10.647435490978562  -127.48011009689893  17.393491935940027  120.000000
3.4943370786516854  0.000000  0.000000  0.000000  -25.532092481031974  6.668320048395602  1.2248732731439862  60.1170260908995  8.987743847597345  7.176494751068594  171.6510632730187  10.588634653888155  -127.88479537641311  17.299334716583267  120.000000
3.534501872659176  0.000000  0.000000  0.000000  -25.515721736058108  6.655651608117238  1.3258401017809638  60.016727748210315  8.819047616889556  7.034159786029167  172.11624774535844  10.442421663402794  -128.41934596626905  17.208575199118368  120.000000
3.574666666666667  0.000000  0.000000  0.000000  -25.48566676803411  6.628992602311587  1.4000090753121648  59.91752164713042  8.637726908556584  6.892717197785731  172.67148921600372  10.20967969615648  -129.08804654320366  17.120757458103157  120.000000
